<mxfile host="app.diagrams.net" agent="Mozilla/5.0 (Windows NT 10.0; Win64; x64) AppleWebKit/537.36 (KHTML, like Gecko) Chrome/135.0.0.0 Safari/537.36" version="26.2.14">
  <diagram name="第 1 页" id="bXbiH3EwShpQN_3dVzvC">
    <mxGraphModel dx="518" dy="397" grid="1" gridSize="10" guides="1" tooltips="1" connect="1" arrows="1" fold="1" page="1" pageScale="1" pageWidth="827" pageHeight="1169" math="0" shadow="0">
      <root>
        <mxCell id="0" />
        <mxCell id="1" parent="0" />
        <mxCell id="7USGRf9EIFTp6t4ebCH--4" style="rounded=0;orthogonalLoop=1;jettySize=auto;html=1;exitX=1;exitY=0.3333333333333333;exitDx=0;exitDy=0;exitPerimeter=0;entryX=0;entryY=0.5;entryDx=0;entryDy=0;fontSize=14;fontFamily=宋体;" parent="1" source="rSCCLJno3e1j1hXcmhqp-1" target="wD3wdMFgseMs4cs2oebw-1" edge="1">
          <mxGeometry relative="1" as="geometry" />
        </mxCell>
        <mxCell id="7USGRf9EIFTp6t4ebCH--5" style="rounded=0;orthogonalLoop=1;jettySize=auto;html=1;exitX=1;exitY=0.3333333333333333;exitDx=0;exitDy=0;exitPerimeter=0;entryX=0;entryY=0.5;entryDx=0;entryDy=0;fontSize=14;fontFamily=宋体;" parent="1" source="rSCCLJno3e1j1hXcmhqp-1" target="rSCCLJno3e1j1hXcmhqp-6" edge="1">
          <mxGeometry relative="1" as="geometry" />
        </mxCell>
        <mxCell id="rSCCLJno3e1j1hXcmhqp-1" value="管理员&lt;div&gt;维修人员&lt;/div&gt;" style="shape=umlActor;verticalLabelPosition=bottom;verticalAlign=top;html=1;outlineConnect=0;fontSize=14;fontFamily=宋体;" parent="1" vertex="1">
          <mxGeometry x="126" y="220.01" width="30" height="60" as="geometry" />
        </mxCell>
        <mxCell id="7USGRf9EIFTp6t4ebCH--6" style="edgeStyle=none;rounded=0;orthogonalLoop=1;jettySize=auto;html=1;exitX=1;exitY=0.5;exitDx=0;exitDy=0;entryX=0;entryY=0.5;entryDx=0;entryDy=0;fontSize=14;fontFamily=宋体;dashed=1;" parent="1" source="rSCCLJno3e1j1hXcmhqp-6" target="7USGRf9EIFTp6t4ebCH--2" edge="1">
          <mxGeometry relative="1" as="geometry" />
        </mxCell>
        <mxCell id="E_hByzMZwW7SoxBH_r5Y-2" value="&lt;font face=&quot;Times New Roman&quot; style=&quot;font-size: 9px;&quot;&gt;&amp;lt;&amp;lt;include&amp;gt;&amp;gt;&lt;/font&gt;" style="edgeLabel;html=1;align=center;verticalAlign=middle;resizable=0;points=[];" vertex="1" connectable="0" parent="7USGRf9EIFTp6t4ebCH--6">
          <mxGeometry x="-0.1193" y="3" relative="1" as="geometry">
            <mxPoint x="-1" as="offset" />
          </mxGeometry>
        </mxCell>
        <mxCell id="7USGRf9EIFTp6t4ebCH--7" style="edgeStyle=none;rounded=0;orthogonalLoop=1;jettySize=auto;html=1;exitX=1;exitY=0.5;exitDx=0;exitDy=0;entryX=0;entryY=0.5;entryDx=0;entryDy=0;fontSize=14;fontFamily=宋体;dashed=1;" parent="1" source="rSCCLJno3e1j1hXcmhqp-6" target="7USGRf9EIFTp6t4ebCH--3" edge="1">
          <mxGeometry relative="1" as="geometry" />
        </mxCell>
        <mxCell id="E_hByzMZwW7SoxBH_r5Y-3" value="&lt;span style=&quot;font-family: &amp;quot;Times New Roman&amp;quot;; font-size: 9px;&quot;&gt;&amp;lt;&amp;lt;include&amp;gt;&amp;gt;&lt;/span&gt;" style="edgeLabel;html=1;align=center;verticalAlign=middle;resizable=0;points=[];" vertex="1" connectable="0" parent="7USGRf9EIFTp6t4ebCH--7">
          <mxGeometry x="-0.2187" y="1" relative="1" as="geometry">
            <mxPoint as="offset" />
          </mxGeometry>
        </mxCell>
        <mxCell id="rSCCLJno3e1j1hXcmhqp-6" value="机器报修管理" style="ellipse;whiteSpace=wrap;html=1;fontSize=14;fontFamily=宋体;" parent="1" vertex="1">
          <mxGeometry x="200" y="243.34" width="110" height="36.67" as="geometry" />
        </mxCell>
        <mxCell id="wD3wdMFgseMs4cs2oebw-1" value="机器列表管理" style="ellipse;whiteSpace=wrap;html=1;fontSize=14;fontFamily=宋体;" parent="1" vertex="1">
          <mxGeometry x="200" y="200" width="110" height="36.67" as="geometry" />
        </mxCell>
        <mxCell id="E_hByzMZwW7SoxBH_r5Y-1" style="rounded=0;orthogonalLoop=1;jettySize=auto;html=1;exitX=0;exitY=0.5;exitDx=0;exitDy=0;dashed=1;" edge="1" parent="1" source="7USGRf9EIFTp6t4ebCH--1">
          <mxGeometry relative="1" as="geometry">
            <mxPoint x="310" y="260" as="targetPoint" />
          </mxGeometry>
        </mxCell>
        <mxCell id="E_hByzMZwW7SoxBH_r5Y-4" value="&lt;span style=&quot;font-family: &amp;quot;Times New Roman&amp;quot;; font-size: 9px;&quot;&gt;&amp;lt;&amp;lt;extend&amp;gt;&amp;gt;&lt;/span&gt;" style="edgeLabel;html=1;align=center;verticalAlign=middle;resizable=0;points=[];" vertex="1" connectable="0" parent="E_hByzMZwW7SoxBH_r5Y-1">
          <mxGeometry x="0.0488" y="1" relative="1" as="geometry">
            <mxPoint as="offset" />
          </mxGeometry>
        </mxCell>
        <mxCell id="7USGRf9EIFTp6t4ebCH--1" value="赠送积分" style="ellipse;whiteSpace=wrap;html=1;fontSize=14;fontFamily=宋体;" parent="1" vertex="1">
          <mxGeometry x="353" y="292.34" width="107" height="36.67" as="geometry" />
        </mxCell>
        <mxCell id="7USGRf9EIFTp6t4ebCH--2" value="处理报修状态" style="ellipse;whiteSpace=wrap;html=1;fontSize=14;fontFamily=宋体;" parent="1" vertex="1">
          <mxGeometry x="353" y="194.34" width="107" height="36.67" as="geometry" />
        </mxCell>
        <mxCell id="7USGRf9EIFTp6t4ebCH--3" value="添加反馈内容" style="ellipse;whiteSpace=wrap;html=1;fontSize=14;fontFamily=宋体;" parent="1" vertex="1">
          <mxGeometry x="380" y="243.34" width="107" height="36.67" as="geometry" />
        </mxCell>
      </root>
    </mxGraphModel>
  </diagram>
</mxfile>
